<svg width="1200" height="800" viewBox="0 0 1200 800" fill="none" xmlns="http://www.w3.org/2000/svg">
  <defs>
    <linearGradient id="bg" x1="0" y1="0" x2="1" y2="1">
      <stop offset="0" stop-color="#2563EB" stop-opacity="0.22"/>
      <stop offset="1" stop-color="#6366F1" stop-opacity="0.14"/>
    </linearGradient>
    <radialGradient id="r1" cx="0" cy="0" r="1" gradientUnits="userSpaceOnUse" gradientTransform="translate(320 260) rotate(30) scale(520 360)">
      <stop stop-color="#2563EB" stop-opacity="0.22"/>
      <stop offset="1" stop-color="#2563EB" stop-opacity="0"/>
    </radialGradient>
    <radialGradient id="r2" cx="0" cy="0" r="1" gradientUnits="userSpaceOnUse" gradientTransform="translate(920 520) rotate(-20) scale(520 360)">
      <stop stop-color="#6366F1" stop-opacity="0.18"/>
      <stop offset="1" stop-color="#6366F1" stop-opacity="0"/>
    </radialGradient>
  </defs>
  <rect width="1200" height="800" rx="24" fill="url(#bg)"/>
  <rect width="1200" height="800" rx="24" fill="url(#r1)"/>
  <rect width="1200" height="800" rx="24" fill="url(#r2)"/>
  <g opacity="0.9">
    <rect x="120" y="160" width="520" height="72" rx="16" fill="white" fill-opacity="0.55"/>
    <rect x="120" y="256" width="720" height="36" rx="12" fill="white" fill-opacity="0.42"/>
    <rect x="120" y="312" width="640" height="36" rx="12" fill="white" fill-opacity="0.38"/>
  </g>
  <g opacity="0.9">
    <circle cx="980" cy="210" r="62" fill="white" fill-opacity="0.40"/>
    <path d="M980 172C986 172 991 177 991 183V199H1007C1013 199 1018 204 1018 210C1018 216 1013 221 1007 221H991V237C991 243 986 248 980 248C974 248 969 243 969 237V221H953C947 221 942 216 942 210C942 204 947 199 953 199H969V183C969 177 974 172 980 172Z" fill="#2563EB" fill-opacity="0.85"/>
  </g>
</svg>

