<svg width="1200" height="800" viewBox="0 0 1200 800" fill="none" xmlns="http://www.w3.org/2000/svg">
  <defs>
    <linearGradient id="bg" x1="0" y1="0" x2="1" y2="1">
      <stop offset="0" stop-color="#2563EB" stop-opacity="0.18"/>
      <stop offset="1" stop-color="#111827" stop-opacity="0.12"/>
    </linearGradient>
    <radialGradient id="r1" cx="0" cy="0" r="1" gradientUnits="userSpaceOnUse" gradientTransform="translate(340 280) rotate(35) scale(560 380)">
      <stop stop-color="#2563EB" stop-opacity="0.22"/>
      <stop offset="1" stop-color="#2563EB" stop-opacity="0"/>
    </radialGradient>
    <radialGradient id="r2" cx="0" cy="0" r="1" gradientUnits="userSpaceOnUse" gradientTransform="translate(940 540) rotate(-18) scale(560 380)">
      <stop stop-color="#111827" stop-opacity="0.18"/>
      <stop offset="1" stop-color="#111827" stop-opacity="0"/>
    </radialGradient>
  </defs>
  <rect width="1200" height="800" rx="24" fill="url(#bg)"/>
  <rect width="1200" height="800" rx="24" fill="url(#r1)"/>
  <rect width="1200" height="800" rx="24" fill="url(#r2)"/>
  <g opacity="0.9">
    <rect x="120" y="180" width="640" height="72" rx="16" fill="white" fill-opacity="0.55"/>
    <rect x="120" y="276" width="720" height="36" rx="12" fill="white" fill-opacity="0.42"/>
    <rect x="120" y="332" width="600" height="36" rx="12" fill="white" fill-opacity="0.38"/>
  </g>
  <g opacity="0.9">
    <circle cx="980" cy="210" r="62" fill="white" fill-opacity="0.40"/>
    <path d="M951 210C951 192 966 177 984 177H1008C1026 177 1041 192 1041 210C1041 228 1026 243 1008 243H984C966 243 951 228 951 210Z" fill="#111827" fill-opacity="0.78"/>
    <path d="M970 210C970 203 975 198 982 198H1010C1017 198 1022 203 1022 210C1022 217 1017 222 1010 222H982C975 222 970 217 970 210Z" fill="#2563EB" fill-opacity="0.80"/>
  </g>
</svg>

