<svg width="1200" height="800" viewBox="0 0 1200 800" fill="none" xmlns="http://www.w3.org/2000/svg">
  <defs>
    <linearGradient id="bg" x1="0" y1="0" x2="1" y2="1">
      <stop offset="0" stop-color="#10B981" stop-opacity="0.14"/>
      <stop offset="1" stop-color="#2563EB" stop-opacity="0.18"/>
    </linearGradient>
    <radialGradient id="r1" cx="0" cy="0" r="1" gradientUnits="userSpaceOnUse" gradientTransform="translate(360 300) rotate(20) scale(520 360)">
      <stop stop-color="#10B981" stop-opacity="0.18"/>
      <stop offset="1" stop-color="#10B981" stop-opacity="0"/>
    </radialGradient>
    <radialGradient id="r2" cx="0" cy="0" r="1" gradientUnits="userSpaceOnUse" gradientTransform="translate(920 520) rotate(-25) scale(520 360)">
      <stop stop-color="#2563EB" stop-opacity="0.16"/>
      <stop offset="1" stop-color="#2563EB" stop-opacity="0"/>
    </radialGradient>
  </defs>
  <rect width="1200" height="800" rx="24" fill="url(#bg)"/>
  <rect width="1200" height="800" rx="24" fill="url(#r1)"/>
  <rect width="1200" height="800" rx="24" fill="url(#r2)"/>
  <g opacity="0.9">
    <rect x="120" y="180" width="560" height="72" rx="16" fill="white" fill-opacity="0.55"/>
    <rect x="120" y="276" width="760" height="36" rx="12" fill="white" fill-opacity="0.42"/>
    <rect x="120" y="332" width="640" height="36" rx="12" fill="white" fill-opacity="0.38"/>
  </g>
  <g opacity="0.9">
    <circle cx="980" cy="210" r="62" fill="white" fill-opacity="0.40"/>
    <path d="M980 168C1001 168 1018 185 1018 206C1018 236 990 254 980 268C970 254 942 236 942 206C942 185 959 168 980 168Z" fill="#10B981" fill-opacity="0.82"/>
  </g>
</svg>

